<mxfile host="Electron" modified="2024-01-17T16:51:50.749Z" agent="Mozilla/5.0 (Windows NT 10.0; Win64; x64) AppleWebKit/537.36 (KHTML, like Gecko) draw.io/22.1.16 Chrome/120.0.6099.109 Electron/28.1.0 Safari/537.36" etag="w9EVAv6jhdQAE5nEpt6l" version="22.1.16" type="device">
  <diagram name="Page-1" id="lSBjROqu6L5SjsOyrCQn">
    <mxGraphModel dx="1502" dy="1721" grid="1" gridSize="10" guides="1" tooltips="1" connect="1" arrows="1" fold="1" page="1" pageScale="1" pageWidth="850" pageHeight="1100" math="0" shadow="0">
      <root>
        <mxCell id="0" />
        <mxCell id="1" parent="0" />
        <mxCell id="eeJpTPLFoyLCRNKp8jV9-1" value="" style="rounded=0;whiteSpace=wrap;html=1;" parent="1" vertex="1">
          <mxGeometry x="120" y="120" width="560" height="40" as="geometry" />
        </mxCell>
        <mxCell id="eeJpTPLFoyLCRNKp8jV9-2" value="&lt;font color=&quot;#ff3333&quot; style=&quot;font-size: 20px;&quot;&gt;&lt;b&gt;Coaches&lt;/b&gt;&lt;/font&gt;" style="text;html=1;strokeColor=none;fillColor=none;align=center;verticalAlign=middle;whiteSpace=wrap;rounded=0;" parent="1" vertex="1">
          <mxGeometry x="120" y="90" width="90" height="30" as="geometry" />
        </mxCell>
        <mxCell id="eeJpTPLFoyLCRNKp8jV9-8" value="" style="group" parent="1" vertex="1" connectable="0">
          <mxGeometry x="180" y="120" width="80" height="40" as="geometry" />
        </mxCell>
        <mxCell id="eeJpTPLFoyLCRNKp8jV9-6" value="&lt;font style=&quot;font-size: 20px;&quot;&gt;Name&lt;/font&gt;" style="text;html=1;align=center;verticalAlign=middle;resizable=0;points=[];autosize=1;strokeColor=none;fillColor=none;" parent="eeJpTPLFoyLCRNKp8jV9-8" vertex="1">
          <mxGeometry width="80" height="40" as="geometry" />
        </mxCell>
        <mxCell id="eeJpTPLFoyLCRNKp8jV9-7" value="" style="endArrow=none;html=1;rounded=0;entryX=1.005;entryY=-0.02;entryDx=0;entryDy=0;entryPerimeter=0;exitX=1.005;exitY=1.02;exitDx=0;exitDy=0;exitPerimeter=0;" parent="eeJpTPLFoyLCRNKp8jV9-8" source="eeJpTPLFoyLCRNKp8jV9-6" target="eeJpTPLFoyLCRNKp8jV9-6" edge="1">
          <mxGeometry width="50" height="50" relative="1" as="geometry">
            <mxPoint x="340" y="210" as="sourcePoint" />
            <mxPoint x="390" y="160" as="targetPoint" />
          </mxGeometry>
        </mxCell>
        <mxCell id="eeJpTPLFoyLCRNKp8jV9-9" value="" style="group" parent="1" vertex="1" connectable="0">
          <mxGeometry x="260" y="120" width="80" height="40" as="geometry" />
        </mxCell>
        <mxCell id="eeJpTPLFoyLCRNKp8jV9-10" value="&lt;font style=&quot;font-size: 20px;&quot;&gt;Email&lt;/font&gt;" style="text;html=1;align=center;verticalAlign=middle;resizable=0;points=[];autosize=1;strokeColor=none;fillColor=none;" parent="eeJpTPLFoyLCRNKp8jV9-9" vertex="1">
          <mxGeometry x="5" width="70" height="40" as="geometry" />
        </mxCell>
        <mxCell id="eeJpTPLFoyLCRNKp8jV9-11" value="" style="endArrow=none;html=1;rounded=0;entryX=1.005;entryY=-0.02;entryDx=0;entryDy=0;entryPerimeter=0;exitX=1.005;exitY=1.02;exitDx=0;exitDy=0;exitPerimeter=0;" parent="eeJpTPLFoyLCRNKp8jV9-9" source="eeJpTPLFoyLCRNKp8jV9-10" target="eeJpTPLFoyLCRNKp8jV9-10" edge="1">
          <mxGeometry width="50" height="50" relative="1" as="geometry">
            <mxPoint x="340" y="210" as="sourcePoint" />
            <mxPoint x="390" y="160" as="targetPoint" />
          </mxGeometry>
        </mxCell>
        <mxCell id="eeJpTPLFoyLCRNKp8jV9-12" value="" style="rounded=0;whiteSpace=wrap;html=1;" parent="1" vertex="1">
          <mxGeometry x="120" y="240" width="160" height="40" as="geometry" />
        </mxCell>
        <mxCell id="eeJpTPLFoyLCRNKp8jV9-13" value="&lt;font color=&quot;#ff3333&quot; style=&quot;font-size: 20px;&quot;&gt;&lt;b&gt;Coach_Addresses&lt;/b&gt;&lt;/font&gt;" style="text;html=1;strokeColor=none;fillColor=none;align=center;verticalAlign=middle;whiteSpace=wrap;rounded=0;" parent="1" vertex="1">
          <mxGeometry x="105" y="210" width="200" height="30" as="geometry" />
        </mxCell>
        <mxCell id="eeJpTPLFoyLCRNKp8jV9-14" value="&lt;font style=&quot;font-size: 20px;&quot;&gt;Id&lt;/font&gt;" style="text;html=1;strokeColor=none;fillColor=none;align=center;verticalAlign=middle;whiteSpace=wrap;rounded=0;" parent="1" vertex="1">
          <mxGeometry x="120" y="240" width="60" height="30" as="geometry" />
        </mxCell>
        <mxCell id="eeJpTPLFoyLCRNKp8jV9-16" value="" style="endArrow=none;html=1;rounded=0;entryX=1;entryY=0;entryDx=0;entryDy=0;exitX=0.378;exitY=1;exitDx=0;exitDy=0;exitPerimeter=0;" parent="1" source="eeJpTPLFoyLCRNKp8jV9-12" target="eeJpTPLFoyLCRNKp8jV9-14" edge="1">
          <mxGeometry width="50" height="50" relative="1" as="geometry">
            <mxPoint x="520" y="450" as="sourcePoint" />
            <mxPoint x="570" y="400" as="targetPoint" />
          </mxGeometry>
        </mxCell>
        <mxCell id="eeJpTPLFoyLCRNKp8jV9-18" value="&lt;font style=&quot;font-size: 20px;&quot;&gt;Address&lt;/font&gt;" style="text;html=1;align=center;verticalAlign=middle;resizable=0;points=[];autosize=1;strokeColor=none;fillColor=none;" parent="1" vertex="1">
          <mxGeometry x="180" y="240" width="100" height="40" as="geometry" />
        </mxCell>
        <mxCell id="eeJpTPLFoyLCRNKp8jV9-24" value="" style="endArrow=none;html=1;rounded=0;exitX=0.25;exitY=1;exitDx=0;exitDy=0;strokeWidth=2;" parent="1" edge="1">
          <mxGeometry width="50" height="50" relative="1" as="geometry">
            <mxPoint x="135" y="276" as="sourcePoint" />
            <mxPoint x="270" y="276" as="targetPoint" />
          </mxGeometry>
        </mxCell>
        <mxCell id="eeJpTPLFoyLCRNKp8jV9-26" value="" style="endArrow=none;html=1;rounded=0;dashed=1;exitX=0.25;exitY=1;exitDx=0;exitDy=0;strokeWidth=2;" parent="1" source="eeJpTPLFoyLCRNKp8jV9-14" edge="1">
          <mxGeometry width="50" height="50" relative="1" as="geometry">
            <mxPoint x="520" y="330" as="sourcePoint" />
            <mxPoint x="170" y="270" as="targetPoint" />
          </mxGeometry>
        </mxCell>
        <mxCell id="eeJpTPLFoyLCRNKp8jV9-28" value="" style="endArrow=classic;html=1;rounded=0;edgeStyle=orthogonalEdgeStyle;exitX=0;exitY=0.75;exitDx=0;exitDy=0;entryX=0;entryY=0.75;entryDx=0;entryDy=0;" parent="1" source="eeJpTPLFoyLCRNKp8jV9-14" target="eeJpTPLFoyLCRNKp8jV9-3" edge="1">
          <mxGeometry width="50" height="50" relative="1" as="geometry">
            <mxPoint x="520" y="330" as="sourcePoint" />
            <mxPoint x="100" y="140" as="targetPoint" />
            <Array as="points">
              <mxPoint x="110" y="263" />
              <mxPoint x="110" y="143" />
            </Array>
          </mxGeometry>
        </mxCell>
        <mxCell id="eeJpTPLFoyLCRNKp8jV9-29" value="" style="rounded=0;whiteSpace=wrap;html=1;" parent="1" vertex="1">
          <mxGeometry x="120" y="360" width="160" height="40" as="geometry" />
        </mxCell>
        <mxCell id="eeJpTPLFoyLCRNKp8jV9-30" value="&lt;font color=&quot;#ff3333&quot; style=&quot;font-size: 20px;&quot;&gt;&lt;b&gt;Coach_Phones&lt;/b&gt;&lt;/font&gt;" style="text;html=1;strokeColor=none;fillColor=none;align=center;verticalAlign=middle;whiteSpace=wrap;rounded=0;" parent="1" vertex="1">
          <mxGeometry x="92" y="330" width="200" height="30" as="geometry" />
        </mxCell>
        <mxCell id="eeJpTPLFoyLCRNKp8jV9-31" value="&lt;font style=&quot;font-size: 20px;&quot;&gt;Id&lt;/font&gt;" style="text;html=1;strokeColor=none;fillColor=none;align=center;verticalAlign=middle;whiteSpace=wrap;rounded=0;" parent="1" vertex="1">
          <mxGeometry x="120" y="360" width="60" height="30" as="geometry" />
        </mxCell>
        <mxCell id="eeJpTPLFoyLCRNKp8jV9-32" value="" style="endArrow=none;html=1;rounded=0;entryX=1;entryY=0;entryDx=0;entryDy=0;exitX=0.378;exitY=1;exitDx=0;exitDy=0;exitPerimeter=0;" parent="1" source="eeJpTPLFoyLCRNKp8jV9-29" target="eeJpTPLFoyLCRNKp8jV9-31" edge="1">
          <mxGeometry width="50" height="50" relative="1" as="geometry">
            <mxPoint x="520" y="570" as="sourcePoint" />
            <mxPoint x="570" y="520" as="targetPoint" />
          </mxGeometry>
        </mxCell>
        <mxCell id="eeJpTPLFoyLCRNKp8jV9-33" value="&lt;font style=&quot;font-size: 20px;&quot;&gt;Phone&lt;/font&gt;" style="text;html=1;align=center;verticalAlign=middle;resizable=0;points=[];autosize=1;strokeColor=none;fillColor=none;" parent="1" vertex="1">
          <mxGeometry x="190" y="360" width="80" height="40" as="geometry" />
        </mxCell>
        <mxCell id="eeJpTPLFoyLCRNKp8jV9-34" value="" style="endArrow=none;html=1;rounded=0;exitX=0.25;exitY=1;exitDx=0;exitDy=0;strokeWidth=2;" parent="1" edge="1">
          <mxGeometry width="50" height="50" relative="1" as="geometry">
            <mxPoint x="135" y="396" as="sourcePoint" />
            <mxPoint x="270" y="396" as="targetPoint" />
          </mxGeometry>
        </mxCell>
        <mxCell id="eeJpTPLFoyLCRNKp8jV9-35" value="" style="endArrow=none;html=1;rounded=0;dashed=1;exitX=0.25;exitY=1;exitDx=0;exitDy=0;strokeWidth=2;" parent="1" source="eeJpTPLFoyLCRNKp8jV9-31" edge="1">
          <mxGeometry width="50" height="50" relative="1" as="geometry">
            <mxPoint x="520" y="450" as="sourcePoint" />
            <mxPoint x="170" y="390" as="targetPoint" />
          </mxGeometry>
        </mxCell>
        <mxCell id="eeJpTPLFoyLCRNKp8jV9-36" value="" style="endArrow=classic;html=1;rounded=0;edgeStyle=orthogonalEdgeStyle;exitX=0;exitY=0.75;exitDx=0;exitDy=0;entryX=0;entryY=0.25;entryDx=0;entryDy=0;" parent="1" source="eeJpTPLFoyLCRNKp8jV9-31" target="eeJpTPLFoyLCRNKp8jV9-3" edge="1">
          <mxGeometry width="50" height="50" relative="1" as="geometry">
            <mxPoint x="83" y="380" as="sourcePoint" />
            <mxPoint x="100" y="120" as="targetPoint" />
            <Array as="points">
              <mxPoint x="120" y="380" />
              <mxPoint x="100" y="380" />
              <mxPoint x="100" y="128" />
            </Array>
          </mxGeometry>
        </mxCell>
        <mxCell id="eeJpTPLFoyLCRNKp8jV9-43" value="" style="group" parent="1" vertex="1" connectable="0">
          <mxGeometry x="120" y="120" width="60" height="40" as="geometry" />
        </mxCell>
        <mxCell id="eeJpTPLFoyLCRNKp8jV9-3" value="&lt;font style=&quot;font-size: 20px;&quot;&gt;Id&lt;/font&gt;" style="text;html=1;strokeColor=none;fillColor=none;align=center;verticalAlign=middle;whiteSpace=wrap;rounded=0;" parent="eeJpTPLFoyLCRNKp8jV9-43" vertex="1">
          <mxGeometry width="60" height="30" as="geometry" />
        </mxCell>
        <mxCell id="eeJpTPLFoyLCRNKp8jV9-5" value="" style="endArrow=none;html=1;rounded=0;entryX=1;entryY=0;entryDx=0;entryDy=0;" parent="eeJpTPLFoyLCRNKp8jV9-43" target="eeJpTPLFoyLCRNKp8jV9-3" edge="1">
          <mxGeometry width="50" height="50" relative="1" as="geometry">
            <mxPoint x="60" y="40" as="sourcePoint" />
            <mxPoint x="450" y="160" as="targetPoint" />
          </mxGeometry>
        </mxCell>
        <mxCell id="eeJpTPLFoyLCRNKp8jV9-4" value="" style="endArrow=none;html=1;rounded=0;exitX=0.25;exitY=1;exitDx=0;exitDy=0;entryX=0.75;entryY=1;entryDx=0;entryDy=0;strokeWidth=2;" parent="eeJpTPLFoyLCRNKp8jV9-43" source="eeJpTPLFoyLCRNKp8jV9-3" target="eeJpTPLFoyLCRNKp8jV9-3" edge="1">
          <mxGeometry width="50" height="50" relative="1" as="geometry">
            <mxPoint x="520" y="330" as="sourcePoint" />
            <mxPoint x="570" y="280" as="targetPoint" />
          </mxGeometry>
        </mxCell>
        <mxCell id="eeJpTPLFoyLCRNKp8jV9-44" value="" style="rounded=0;whiteSpace=wrap;html=1;" parent="1" vertex="1">
          <mxGeometry x="120" y="480" width="360" height="40" as="geometry" />
        </mxCell>
        <mxCell id="eeJpTPLFoyLCRNKp8jV9-45" value="&lt;font color=&quot;#ff3333&quot; style=&quot;font-size: 20px;&quot;&gt;&lt;b&gt;Users&lt;/b&gt;&lt;/font&gt;" style="text;html=1;strokeColor=none;fillColor=none;align=center;verticalAlign=middle;whiteSpace=wrap;rounded=0;" parent="1" vertex="1">
          <mxGeometry x="105" y="450" width="90" height="30" as="geometry" />
        </mxCell>
        <mxCell id="eeJpTPLFoyLCRNKp8jV9-46" value="" style="group" parent="1" vertex="1" connectable="0">
          <mxGeometry x="120" y="480" width="60" height="40" as="geometry" />
        </mxCell>
        <mxCell id="eeJpTPLFoyLCRNKp8jV9-47" value="&lt;font style=&quot;font-size: 20px;&quot;&gt;Id&lt;/font&gt;" style="text;html=1;strokeColor=none;fillColor=none;align=center;verticalAlign=middle;whiteSpace=wrap;rounded=0;" parent="eeJpTPLFoyLCRNKp8jV9-46" vertex="1">
          <mxGeometry width="60" height="30" as="geometry" />
        </mxCell>
        <mxCell id="eeJpTPLFoyLCRNKp8jV9-48" value="" style="endArrow=none;html=1;rounded=0;entryX=1;entryY=0;entryDx=0;entryDy=0;" parent="eeJpTPLFoyLCRNKp8jV9-46" target="eeJpTPLFoyLCRNKp8jV9-47" edge="1">
          <mxGeometry width="50" height="50" relative="1" as="geometry">
            <mxPoint x="60" y="40" as="sourcePoint" />
            <mxPoint x="450" y="160" as="targetPoint" />
          </mxGeometry>
        </mxCell>
        <mxCell id="eeJpTPLFoyLCRNKp8jV9-49" value="" style="endArrow=none;html=1;rounded=0;exitX=0.25;exitY=1;exitDx=0;exitDy=0;entryX=0.75;entryY=1;entryDx=0;entryDy=0;strokeWidth=2;" parent="eeJpTPLFoyLCRNKp8jV9-46" source="eeJpTPLFoyLCRNKp8jV9-47" target="eeJpTPLFoyLCRNKp8jV9-47" edge="1">
          <mxGeometry width="50" height="50" relative="1" as="geometry">
            <mxPoint x="520" y="330" as="sourcePoint" />
            <mxPoint x="570" y="280" as="targetPoint" />
          </mxGeometry>
        </mxCell>
        <mxCell id="eeJpTPLFoyLCRNKp8jV9-50" value="" style="group" parent="1" vertex="1" connectable="0">
          <mxGeometry x="180" y="480" width="80" height="40" as="geometry" />
        </mxCell>
        <mxCell id="eeJpTPLFoyLCRNKp8jV9-51" value="&lt;font style=&quot;font-size: 20px;&quot;&gt;Name&lt;/font&gt;" style="text;html=1;align=center;verticalAlign=middle;resizable=0;points=[];autosize=1;strokeColor=none;fillColor=none;" parent="eeJpTPLFoyLCRNKp8jV9-50" vertex="1">
          <mxGeometry width="80" height="40" as="geometry" />
        </mxCell>
        <mxCell id="eeJpTPLFoyLCRNKp8jV9-52" value="" style="endArrow=none;html=1;rounded=0;entryX=1.005;entryY=-0.02;entryDx=0;entryDy=0;entryPerimeter=0;exitX=1.005;exitY=1.02;exitDx=0;exitDy=0;exitPerimeter=0;" parent="eeJpTPLFoyLCRNKp8jV9-50" source="eeJpTPLFoyLCRNKp8jV9-51" target="eeJpTPLFoyLCRNKp8jV9-51" edge="1">
          <mxGeometry width="50" height="50" relative="1" as="geometry">
            <mxPoint x="340" y="210" as="sourcePoint" />
            <mxPoint x="390" y="160" as="targetPoint" />
          </mxGeometry>
        </mxCell>
        <mxCell id="eeJpTPLFoyLCRNKp8jV9-53" value="&lt;font style=&quot;font-size: 20px;&quot;&gt;Password&lt;/font&gt;" style="text;html=1;align=center;verticalAlign=middle;resizable=0;points=[];autosize=1;strokeColor=none;fillColor=none;" parent="1" vertex="1">
          <mxGeometry x="262" y="480" width="110" height="40" as="geometry" />
        </mxCell>
        <mxCell id="eeJpTPLFoyLCRNKp8jV9-56" value="" style="rounded=0;whiteSpace=wrap;html=1;" parent="1" vertex="1">
          <mxGeometry x="120" y="600" width="160" height="40" as="geometry" />
        </mxCell>
        <mxCell id="eeJpTPLFoyLCRNKp8jV9-57" value="&lt;font color=&quot;#ff3333&quot; style=&quot;font-size: 20px;&quot;&gt;&lt;b&gt;User_Addresses&lt;/b&gt;&lt;/font&gt;" style="text;html=1;strokeColor=none;fillColor=none;align=center;verticalAlign=middle;whiteSpace=wrap;rounded=0;" parent="1" vertex="1">
          <mxGeometry x="100" y="570" width="200" height="30" as="geometry" />
        </mxCell>
        <mxCell id="eeJpTPLFoyLCRNKp8jV9-59" value="" style="endArrow=none;html=1;rounded=0;entryX=1;entryY=0;entryDx=0;entryDy=0;exitX=0.378;exitY=1;exitDx=0;exitDy=0;exitPerimeter=0;" parent="1" source="eeJpTPLFoyLCRNKp8jV9-56" target="eeJpTPLFoyLCRNKp8jV9-58" edge="1">
          <mxGeometry width="50" height="50" relative="1" as="geometry">
            <mxPoint x="520" y="810" as="sourcePoint" />
            <mxPoint x="570" y="760" as="targetPoint" />
          </mxGeometry>
        </mxCell>
        <mxCell id="eeJpTPLFoyLCRNKp8jV9-60" value="&lt;font style=&quot;font-size: 20px;&quot;&gt;Address&lt;/font&gt;" style="text;html=1;align=center;verticalAlign=middle;resizable=0;points=[];autosize=1;strokeColor=none;fillColor=none;" parent="1" vertex="1">
          <mxGeometry x="180" y="600" width="100" height="40" as="geometry" />
        </mxCell>
        <mxCell id="eeJpTPLFoyLCRNKp8jV9-61" value="" style="endArrow=none;html=1;rounded=0;exitX=0.25;exitY=1;exitDx=0;exitDy=0;strokeWidth=2;" parent="1" edge="1">
          <mxGeometry width="50" height="50" relative="1" as="geometry">
            <mxPoint x="135" y="636" as="sourcePoint" />
            <mxPoint x="270" y="636" as="targetPoint" />
          </mxGeometry>
        </mxCell>
        <mxCell id="eeJpTPLFoyLCRNKp8jV9-63" value="" style="rounded=0;whiteSpace=wrap;html=1;" parent="1" vertex="1">
          <mxGeometry x="120" y="720" width="160" height="40" as="geometry" />
        </mxCell>
        <mxCell id="eeJpTPLFoyLCRNKp8jV9-64" value="&lt;font style=&quot;font-size: 20px;&quot;&gt;Id&lt;/font&gt;" style="text;html=1;strokeColor=none;fillColor=none;align=center;verticalAlign=middle;whiteSpace=wrap;rounded=0;" parent="1" vertex="1">
          <mxGeometry x="120" y="720" width="60" height="30" as="geometry" />
        </mxCell>
        <mxCell id="eeJpTPLFoyLCRNKp8jV9-65" value="" style="endArrow=none;html=1;rounded=0;entryX=1;entryY=0;entryDx=0;entryDy=0;exitX=0.378;exitY=1;exitDx=0;exitDy=0;exitPerimeter=0;" parent="1" source="eeJpTPLFoyLCRNKp8jV9-63" target="eeJpTPLFoyLCRNKp8jV9-64" edge="1">
          <mxGeometry width="50" height="50" relative="1" as="geometry">
            <mxPoint x="520" y="930" as="sourcePoint" />
            <mxPoint x="570" y="880" as="targetPoint" />
          </mxGeometry>
        </mxCell>
        <mxCell id="eeJpTPLFoyLCRNKp8jV9-66" value="&lt;font style=&quot;font-size: 20px;&quot;&gt;Phone&lt;/font&gt;" style="text;html=1;align=center;verticalAlign=middle;resizable=0;points=[];autosize=1;strokeColor=none;fillColor=none;" parent="1" vertex="1">
          <mxGeometry x="190" y="720" width="80" height="40" as="geometry" />
        </mxCell>
        <mxCell id="eeJpTPLFoyLCRNKp8jV9-67" value="" style="endArrow=none;html=1;rounded=0;exitX=0.25;exitY=1;exitDx=0;exitDy=0;strokeWidth=2;" parent="1" edge="1">
          <mxGeometry width="50" height="50" relative="1" as="geometry">
            <mxPoint x="135" y="756" as="sourcePoint" />
            <mxPoint x="270" y="756" as="targetPoint" />
          </mxGeometry>
        </mxCell>
        <mxCell id="eeJpTPLFoyLCRNKp8jV9-68" value="" style="endArrow=none;html=1;rounded=0;dashed=1;exitX=0.25;exitY=1;exitDx=0;exitDy=0;strokeWidth=2;" parent="1" source="eeJpTPLFoyLCRNKp8jV9-64" edge="1">
          <mxGeometry width="50" height="50" relative="1" as="geometry">
            <mxPoint x="520" y="810" as="sourcePoint" />
            <mxPoint x="170" y="750" as="targetPoint" />
          </mxGeometry>
        </mxCell>
        <mxCell id="eeJpTPLFoyLCRNKp8jV9-69" value="&lt;font color=&quot;#ff3333&quot; style=&quot;font-size: 20px;&quot;&gt;&lt;b&gt;User_Phones&lt;/b&gt;&lt;/font&gt;" style="text;html=1;strokeColor=none;fillColor=none;align=center;verticalAlign=middle;whiteSpace=wrap;rounded=0;" parent="1" vertex="1">
          <mxGeometry x="90" y="690" width="200" height="30" as="geometry" />
        </mxCell>
        <mxCell id="eeJpTPLFoyLCRNKp8jV9-70" value="" style="endArrow=classic;html=1;rounded=0;edgeStyle=orthogonalEdgeStyle;exitX=0;exitY=0.75;exitDx=0;exitDy=0;entryX=0;entryY=0.75;entryDx=0;entryDy=0;" parent="1" edge="1">
          <mxGeometry width="50" height="50" relative="1" as="geometry">
            <mxPoint x="120" y="630" as="sourcePoint" />
            <mxPoint x="120" y="510" as="targetPoint" />
            <Array as="points">
              <mxPoint x="110" y="630" />
              <mxPoint x="110" y="510" />
            </Array>
          </mxGeometry>
        </mxCell>
        <mxCell id="eeJpTPLFoyLCRNKp8jV9-71" value="" style="endArrow=classic;html=1;rounded=0;edgeStyle=orthogonalEdgeStyle;exitX=0;exitY=0.75;exitDx=0;exitDy=0;entryX=0;entryY=0.75;entryDx=0;entryDy=0;" parent="1" target="eeJpTPLFoyLCRNKp8jV9-47" edge="1">
          <mxGeometry width="50" height="50" relative="1" as="geometry">
            <mxPoint x="120" y="740" as="sourcePoint" />
            <mxPoint x="80" y="500" as="targetPoint" />
            <Array as="points">
              <mxPoint x="100" y="740" />
              <mxPoint x="100" y="503" />
            </Array>
          </mxGeometry>
        </mxCell>
        <mxCell id="eeJpTPLFoyLCRNKp8jV9-82" value="&lt;font color=&quot;#ff3333&quot; style=&quot;font-size: 20px;&quot;&gt;&lt;b&gt;Payments&lt;/b&gt;&lt;/font&gt;" style="text;html=1;strokeColor=none;fillColor=none;align=center;verticalAlign=middle;whiteSpace=wrap;rounded=0;" parent="1" vertex="1">
          <mxGeometry x="120" y="929" width="110" height="30" as="geometry" />
        </mxCell>
        <mxCell id="eeJpTPLFoyLCRNKp8jV9-83" value="" style="rounded=0;whiteSpace=wrap;html=1;" parent="1" vertex="1">
          <mxGeometry x="120" y="959" width="650" height="40" as="geometry" />
        </mxCell>
        <mxCell id="eeJpTPLFoyLCRNKp8jV9-84" value="" style="group" parent="1" vertex="1" connectable="0">
          <mxGeometry x="120" y="959" width="60" height="40" as="geometry" />
        </mxCell>
        <mxCell id="eeJpTPLFoyLCRNKp8jV9-85" value="&lt;font style=&quot;font-size: 20px;&quot;&gt;Id&lt;/font&gt;" style="text;html=1;strokeColor=none;fillColor=none;align=center;verticalAlign=middle;whiteSpace=wrap;rounded=0;" parent="eeJpTPLFoyLCRNKp8jV9-84" vertex="1">
          <mxGeometry width="60" height="30" as="geometry" />
        </mxCell>
        <mxCell id="eeJpTPLFoyLCRNKp8jV9-86" value="" style="endArrow=none;html=1;rounded=0;entryX=1;entryY=0;entryDx=0;entryDy=0;" parent="eeJpTPLFoyLCRNKp8jV9-84" target="eeJpTPLFoyLCRNKp8jV9-85" edge="1">
          <mxGeometry width="50" height="50" relative="1" as="geometry">
            <mxPoint x="60" y="40" as="sourcePoint" />
            <mxPoint x="450" y="160" as="targetPoint" />
          </mxGeometry>
        </mxCell>
        <mxCell id="eeJpTPLFoyLCRNKp8jV9-87" value="" style="endArrow=none;html=1;rounded=0;exitX=0.25;exitY=1;exitDx=0;exitDy=0;entryX=0.75;entryY=1;entryDx=0;entryDy=0;strokeWidth=2;" parent="eeJpTPLFoyLCRNKp8jV9-84" source="eeJpTPLFoyLCRNKp8jV9-85" target="eeJpTPLFoyLCRNKp8jV9-85" edge="1">
          <mxGeometry width="50" height="50" relative="1" as="geometry">
            <mxPoint x="520" y="330" as="sourcePoint" />
            <mxPoint x="570" y="280" as="targetPoint" />
          </mxGeometry>
        </mxCell>
        <mxCell id="eeJpTPLFoyLCRNKp8jV9-88" value="" style="group" parent="1" vertex="1" connectable="0">
          <mxGeometry x="190" y="959" width="85" height="40" as="geometry" />
        </mxCell>
        <mxCell id="eeJpTPLFoyLCRNKp8jV9-89" value="&lt;font style=&quot;font-size: 20px;&quot;&gt;Amount&lt;/font&gt;" style="text;html=1;align=center;verticalAlign=middle;resizable=0;points=[];autosize=1;strokeColor=none;fillColor=none;" parent="eeJpTPLFoyLCRNKp8jV9-88" vertex="1">
          <mxGeometry x="-5" width="90" height="40" as="geometry" />
        </mxCell>
        <mxCell id="eeJpTPLFoyLCRNKp8jV9-90" value="" style="endArrow=none;html=1;rounded=0;entryX=1.005;entryY=-0.02;entryDx=0;entryDy=0;entryPerimeter=0;exitX=1.005;exitY=1.02;exitDx=0;exitDy=0;exitPerimeter=0;" parent="eeJpTPLFoyLCRNKp8jV9-88" source="eeJpTPLFoyLCRNKp8jV9-89" target="eeJpTPLFoyLCRNKp8jV9-89" edge="1">
          <mxGeometry width="50" height="50" relative="1" as="geometry">
            <mxPoint x="340" y="210" as="sourcePoint" />
            <mxPoint x="390" y="160" as="targetPoint" />
          </mxGeometry>
        </mxCell>
        <mxCell id="eeJpTPLFoyLCRNKp8jV9-91" value="&lt;span style=&quot;font-size: 20px;&quot;&gt;Date&lt;/span&gt;" style="text;html=1;align=center;verticalAlign=middle;resizable=0;points=[];autosize=1;strokeColor=none;fillColor=none;" parent="1" vertex="1">
          <mxGeometry x="285" y="959" width="70" height="40" as="geometry" />
        </mxCell>
        <mxCell id="eeJpTPLFoyLCRNKp8jV9-92" value="&lt;span style=&quot;font-size: 20px;&quot;&gt;Time&lt;/span&gt;" style="text;html=1;align=center;verticalAlign=middle;resizable=0;points=[];autosize=1;strokeColor=none;fillColor=none;" parent="1" vertex="1">
          <mxGeometry x="367" y="959.8" width="70" height="40" as="geometry" />
        </mxCell>
        <mxCell id="eeJpTPLFoyLCRNKp8jV9-93" value="" style="endArrow=none;html=1;rounded=0;exitX=0.687;exitY=1.01;exitDx=0;exitDy=0;exitPerimeter=0;entryX=1.077;entryY=0.03;entryDx=0;entryDy=0;entryPerimeter=0;" parent="1" edge="1">
          <mxGeometry width="50" height="50" relative="1" as="geometry">
            <mxPoint x="360.45000000000005" y="998.4000000000001" as="sourcePoint" />
            <mxPoint x="360.3900000000001" y="959.2" as="targetPoint" />
          </mxGeometry>
        </mxCell>
        <mxCell id="eeJpTPLFoyLCRNKp8jV9-94" value="&lt;font color=&quot;#ff3333&quot; style=&quot;font-size: 20px;&quot;&gt;&lt;b&gt;Members&lt;/b&gt;&lt;/font&gt;" style="text;html=1;strokeColor=none;fillColor=none;align=center;verticalAlign=middle;whiteSpace=wrap;rounded=0;" parent="1" vertex="1">
          <mxGeometry x="111" y="1050" width="110" height="30" as="geometry" />
        </mxCell>
        <mxCell id="eeJpTPLFoyLCRNKp8jV9-95" value="" style="rounded=0;whiteSpace=wrap;html=1;" parent="1" vertex="1">
          <mxGeometry x="120" y="1080" width="740" height="40" as="geometry" />
        </mxCell>
        <mxCell id="eeJpTPLFoyLCRNKp8jV9-96" value="" style="group" parent="1" vertex="1" connectable="0">
          <mxGeometry x="120" y="1080" width="60" height="40" as="geometry" />
        </mxCell>
        <mxCell id="eeJpTPLFoyLCRNKp8jV9-97" value="&lt;font style=&quot;font-size: 20px;&quot;&gt;Id&lt;/font&gt;" style="text;html=1;strokeColor=none;fillColor=none;align=center;verticalAlign=middle;whiteSpace=wrap;rounded=0;" parent="eeJpTPLFoyLCRNKp8jV9-96" vertex="1">
          <mxGeometry width="60" height="30" as="geometry" />
        </mxCell>
        <mxCell id="eeJpTPLFoyLCRNKp8jV9-98" value="" style="endArrow=none;html=1;rounded=0;entryX=1;entryY=0;entryDx=0;entryDy=0;" parent="eeJpTPLFoyLCRNKp8jV9-96" target="eeJpTPLFoyLCRNKp8jV9-97" edge="1">
          <mxGeometry width="50" height="50" relative="1" as="geometry">
            <mxPoint x="60" y="40" as="sourcePoint" />
            <mxPoint x="450" y="160" as="targetPoint" />
          </mxGeometry>
        </mxCell>
        <mxCell id="eeJpTPLFoyLCRNKp8jV9-99" value="" style="endArrow=none;html=1;rounded=0;exitX=0.25;exitY=1;exitDx=0;exitDy=0;entryX=0.75;entryY=1;entryDx=0;entryDy=0;strokeWidth=2;" parent="eeJpTPLFoyLCRNKp8jV9-96" source="eeJpTPLFoyLCRNKp8jV9-97" target="eeJpTPLFoyLCRNKp8jV9-97" edge="1">
          <mxGeometry width="50" height="50" relative="1" as="geometry">
            <mxPoint x="520" y="330" as="sourcePoint" />
            <mxPoint x="570" y="280" as="targetPoint" />
          </mxGeometry>
        </mxCell>
        <mxCell id="eeJpTPLFoyLCRNKp8jV9-100" value="" style="group" parent="1" vertex="1" connectable="0">
          <mxGeometry x="181" y="1080" width="85" height="40" as="geometry" />
        </mxCell>
        <mxCell id="eeJpTPLFoyLCRNKp8jV9-101" value="&lt;font style=&quot;font-size: 20px;&quot;&gt;Name&lt;/font&gt;" style="text;html=1;align=center;verticalAlign=middle;resizable=0;points=[];autosize=1;strokeColor=none;fillColor=none;" parent="eeJpTPLFoyLCRNKp8jV9-100" vertex="1">
          <mxGeometry width="80" height="40" as="geometry" />
        </mxCell>
        <mxCell id="eeJpTPLFoyLCRNKp8jV9-102" value="" style="endArrow=none;html=1;rounded=0;entryX=1.005;entryY=-0.02;entryDx=0;entryDy=0;entryPerimeter=0;exitX=1.005;exitY=1.02;exitDx=0;exitDy=0;exitPerimeter=0;" parent="eeJpTPLFoyLCRNKp8jV9-100" source="eeJpTPLFoyLCRNKp8jV9-101" target="eeJpTPLFoyLCRNKp8jV9-101" edge="1">
          <mxGeometry width="50" height="50" relative="1" as="geometry">
            <mxPoint x="340" y="210" as="sourcePoint" />
            <mxPoint x="390" y="160" as="targetPoint" />
          </mxGeometry>
        </mxCell>
        <mxCell id="eeJpTPLFoyLCRNKp8jV9-103" value="&lt;span style=&quot;font-size: 20px;&quot;&gt;Email&lt;/span&gt;" style="text;html=1;align=center;verticalAlign=middle;resizable=0;points=[];autosize=1;strokeColor=none;fillColor=none;" parent="1" vertex="1">
          <mxGeometry x="262" y="1080" width="70" height="40" as="geometry" />
        </mxCell>
        <mxCell id="eeJpTPLFoyLCRNKp8jV9-104" value="&lt;span style=&quot;font-size: 20px;&quot;&gt;Age&lt;/span&gt;" style="text;html=1;align=center;verticalAlign=middle;resizable=0;points=[];autosize=1;strokeColor=none;fillColor=none;" parent="1" vertex="1">
          <mxGeometry x="340" y="1080" width="60" height="40" as="geometry" />
        </mxCell>
        <mxCell id="eeJpTPLFoyLCRNKp8jV9-105" value="" style="endArrow=none;html=1;rounded=0;exitX=0.687;exitY=1.01;exitDx=0;exitDy=0;exitPerimeter=0;entryX=1.077;entryY=0.03;entryDx=0;entryDy=0;entryPerimeter=0;" parent="1" edge="1">
          <mxGeometry width="50" height="50" relative="1" as="geometry">
            <mxPoint x="339.45000000000005" y="1119.4" as="sourcePoint" />
            <mxPoint x="339.3900000000001" y="1080.2" as="targetPoint" />
          </mxGeometry>
        </mxCell>
        <mxCell id="eeJpTPLFoyLCRNKp8jV9-106" value="" style="endArrow=none;html=1;rounded=0;exitX=0.687;exitY=1.01;exitDx=0;exitDy=0;exitPerimeter=0;entryX=1.077;entryY=0.03;entryDx=0;entryDy=0;entryPerimeter=0;" parent="1" edge="1">
          <mxGeometry width="50" height="50" relative="1" as="geometry">
            <mxPoint x="398.45000000000005" y="1120.4" as="sourcePoint" />
            <mxPoint x="398.3900000000001" y="1081.2" as="targetPoint" />
          </mxGeometry>
        </mxCell>
        <mxCell id="eeJpTPLFoyLCRNKp8jV9-107" value="&lt;span style=&quot;font-size: 20px;&quot;&gt;Gender&lt;/span&gt;" style="text;html=1;align=center;verticalAlign=middle;resizable=0;points=[];autosize=1;strokeColor=none;fillColor=none;" parent="1" vertex="1">
          <mxGeometry x="401" y="1080" width="90" height="40" as="geometry" />
        </mxCell>
        <mxCell id="eeJpTPLFoyLCRNKp8jV9-112" value="" style="rounded=0;whiteSpace=wrap;html=1;" parent="1" vertex="1">
          <mxGeometry x="120" y="1200" width="160" height="40" as="geometry" />
        </mxCell>
        <mxCell id="eeJpTPLFoyLCRNKp8jV9-113" value="&lt;font style=&quot;font-size: 20px;&quot;&gt;Id&lt;/font&gt;" style="text;html=1;strokeColor=none;fillColor=none;align=center;verticalAlign=middle;whiteSpace=wrap;rounded=0;" parent="1" vertex="1">
          <mxGeometry x="120" y="1200" width="60" height="30" as="geometry" />
        </mxCell>
        <mxCell id="eeJpTPLFoyLCRNKp8jV9-114" value="" style="endArrow=none;html=1;rounded=0;entryX=1;entryY=0;entryDx=0;entryDy=0;exitX=0.378;exitY=1;exitDx=0;exitDy=0;exitPerimeter=0;" parent="1" source="eeJpTPLFoyLCRNKp8jV9-112" target="eeJpTPLFoyLCRNKp8jV9-113" edge="1">
          <mxGeometry width="50" height="50" relative="1" as="geometry">
            <mxPoint x="520" y="1410" as="sourcePoint" />
            <mxPoint x="570" y="1360" as="targetPoint" />
          </mxGeometry>
        </mxCell>
        <mxCell id="eeJpTPLFoyLCRNKp8jV9-115" value="&lt;font style=&quot;font-size: 20px;&quot;&gt;Phone&lt;/font&gt;" style="text;html=1;align=center;verticalAlign=middle;resizable=0;points=[];autosize=1;strokeColor=none;fillColor=none;" parent="1" vertex="1">
          <mxGeometry x="190" y="1200" width="80" height="40" as="geometry" />
        </mxCell>
        <mxCell id="eeJpTPLFoyLCRNKp8jV9-116" value="" style="endArrow=none;html=1;rounded=0;exitX=0.25;exitY=1;exitDx=0;exitDy=0;strokeWidth=2;" parent="1" edge="1">
          <mxGeometry width="50" height="50" relative="1" as="geometry">
            <mxPoint x="135" y="1236" as="sourcePoint" />
            <mxPoint x="270" y="1236" as="targetPoint" />
          </mxGeometry>
        </mxCell>
        <mxCell id="eeJpTPLFoyLCRNKp8jV9-117" value="" style="endArrow=none;html=1;rounded=0;dashed=1;exitX=0.25;exitY=1;exitDx=0;exitDy=0;strokeWidth=2;" parent="1" source="eeJpTPLFoyLCRNKp8jV9-113" edge="1">
          <mxGeometry width="50" height="50" relative="1" as="geometry">
            <mxPoint x="520" y="1290" as="sourcePoint" />
            <mxPoint x="170" y="1230" as="targetPoint" />
          </mxGeometry>
        </mxCell>
        <mxCell id="eeJpTPLFoyLCRNKp8jV9-118" value="&lt;font color=&quot;#ff3333&quot; style=&quot;font-size: 20px;&quot;&gt;&lt;b&gt;Member_Phones&lt;/b&gt;&lt;/font&gt;" style="text;html=1;strokeColor=none;fillColor=none;align=center;verticalAlign=middle;whiteSpace=wrap;rounded=0;" parent="1" vertex="1">
          <mxGeometry x="145" y="1170" width="110" height="30" as="geometry" />
        </mxCell>
        <mxCell id="eeJpTPLFoyLCRNKp8jV9-119" value="" style="endArrow=classic;html=1;rounded=0;edgeStyle=orthogonalEdgeStyle;exitX=0;exitY=0.75;exitDx=0;exitDy=0;entryX=0;entryY=0.75;entryDx=0;entryDy=0;" parent="1" edge="1">
          <mxGeometry width="50" height="50" relative="1" as="geometry">
            <mxPoint x="120" y="1220" as="sourcePoint" />
            <mxPoint x="120" y="1100" as="targetPoint" />
            <Array as="points">
              <mxPoint x="110" y="1220" />
              <mxPoint x="110" y="1100" />
            </Array>
          </mxGeometry>
        </mxCell>
        <mxCell id="eeJpTPLFoyLCRNKp8jV9-120" value="&lt;font color=&quot;#ff3333&quot; style=&quot;font-size: 20px;&quot;&gt;&lt;b&gt;Memberships&lt;/b&gt;&lt;/font&gt;" style="text;html=1;strokeColor=none;fillColor=none;align=center;verticalAlign=middle;whiteSpace=wrap;rounded=0;" parent="1" vertex="1">
          <mxGeometry x="130" y="1290" width="110" height="30" as="geometry" />
        </mxCell>
        <mxCell id="eeJpTPLFoyLCRNKp8jV9-121" value="" style="rounded=0;whiteSpace=wrap;html=1;" parent="1" vertex="1">
          <mxGeometry x="120" y="1320" width="680" height="40" as="geometry" />
        </mxCell>
        <mxCell id="eeJpTPLFoyLCRNKp8jV9-122" value="" style="group" parent="1" vertex="1" connectable="0">
          <mxGeometry x="120" y="1320" width="60" height="40" as="geometry" />
        </mxCell>
        <mxCell id="eeJpTPLFoyLCRNKp8jV9-123" value="&lt;font style=&quot;font-size: 20px;&quot;&gt;Id&lt;/font&gt;" style="text;html=1;strokeColor=none;fillColor=none;align=center;verticalAlign=middle;whiteSpace=wrap;rounded=0;" parent="eeJpTPLFoyLCRNKp8jV9-122" vertex="1">
          <mxGeometry width="60" height="30" as="geometry" />
        </mxCell>
        <mxCell id="eeJpTPLFoyLCRNKp8jV9-124" value="" style="endArrow=none;html=1;rounded=0;entryX=1;entryY=0;entryDx=0;entryDy=0;" parent="eeJpTPLFoyLCRNKp8jV9-122" target="eeJpTPLFoyLCRNKp8jV9-123" edge="1">
          <mxGeometry width="50" height="50" relative="1" as="geometry">
            <mxPoint x="60" y="40" as="sourcePoint" />
            <mxPoint x="450" y="160" as="targetPoint" />
          </mxGeometry>
        </mxCell>
        <mxCell id="eeJpTPLFoyLCRNKp8jV9-125" value="" style="endArrow=none;html=1;rounded=0;exitX=0.25;exitY=1;exitDx=0;exitDy=0;entryX=0.75;entryY=1;entryDx=0;entryDy=0;strokeWidth=2;" parent="eeJpTPLFoyLCRNKp8jV9-122" source="eeJpTPLFoyLCRNKp8jV9-123" target="eeJpTPLFoyLCRNKp8jV9-123" edge="1">
          <mxGeometry width="50" height="50" relative="1" as="geometry">
            <mxPoint x="520" y="330" as="sourcePoint" />
            <mxPoint x="570" y="280" as="targetPoint" />
          </mxGeometry>
        </mxCell>
        <mxCell id="eeJpTPLFoyLCRNKp8jV9-126" value="" style="group" parent="1" vertex="1" connectable="0">
          <mxGeometry x="190" y="1320" width="85" height="40" as="geometry" />
        </mxCell>
        <mxCell id="eeJpTPLFoyLCRNKp8jV9-127" value="&lt;font style=&quot;font-size: 20px;&quot;&gt;Name&lt;/font&gt;" style="text;html=1;align=center;verticalAlign=middle;resizable=0;points=[];autosize=1;strokeColor=none;fillColor=none;" parent="eeJpTPLFoyLCRNKp8jV9-126" vertex="1">
          <mxGeometry width="80" height="40" as="geometry" />
        </mxCell>
        <mxCell id="eeJpTPLFoyLCRNKp8jV9-128" value="" style="endArrow=none;html=1;rounded=0;entryX=1.005;entryY=-0.02;entryDx=0;entryDy=0;entryPerimeter=0;exitX=1.005;exitY=1.02;exitDx=0;exitDy=0;exitPerimeter=0;" parent="eeJpTPLFoyLCRNKp8jV9-126" source="eeJpTPLFoyLCRNKp8jV9-127" target="eeJpTPLFoyLCRNKp8jV9-127" edge="1">
          <mxGeometry width="50" height="50" relative="1" as="geometry">
            <mxPoint x="340" y="210" as="sourcePoint" />
            <mxPoint x="390" y="160" as="targetPoint" />
          </mxGeometry>
        </mxCell>
        <mxCell id="eeJpTPLFoyLCRNKp8jV9-129" value="&lt;span style=&quot;font-size: 20px;&quot;&gt;Amount&lt;/span&gt;" style="text;html=1;align=center;verticalAlign=middle;resizable=0;points=[];autosize=1;strokeColor=none;fillColor=none;" parent="1" vertex="1">
          <mxGeometry x="272" y="1320" width="90" height="40" as="geometry" />
        </mxCell>
        <mxCell id="eeJpTPLFoyLCRNKp8jV9-130" value="&lt;span style=&quot;font-size: 20px;&quot;&gt;Period&lt;/span&gt;" style="text;html=1;align=center;verticalAlign=middle;resizable=0;points=[];autosize=1;strokeColor=none;fillColor=none;" parent="1" vertex="1">
          <mxGeometry x="362" y="1320" width="80" height="40" as="geometry" />
        </mxCell>
        <mxCell id="eeJpTPLFoyLCRNKp8jV9-131" value="" style="endArrow=none;html=1;rounded=0;exitX=0.687;exitY=1.01;exitDx=0;exitDy=0;exitPerimeter=0;entryX=1.077;entryY=0.03;entryDx=0;entryDy=0;entryPerimeter=0;" parent="1" edge="1">
          <mxGeometry width="50" height="50" relative="1" as="geometry">
            <mxPoint x="360.45000000000005" y="1359.4" as="sourcePoint" />
            <mxPoint x="360.3900000000001" y="1320.2" as="targetPoint" />
          </mxGeometry>
        </mxCell>
        <mxCell id="4YxnSJMb0JChCWjWq8wu-3" value="" style="group" parent="1" vertex="1" connectable="0">
          <mxGeometry x="120" y="600" width="60" height="30" as="geometry" />
        </mxCell>
        <mxCell id="eeJpTPLFoyLCRNKp8jV9-58" value="&lt;font style=&quot;font-size: 20px;&quot;&gt;Id&lt;/font&gt;" style="text;html=1;strokeColor=none;fillColor=none;align=center;verticalAlign=middle;whiteSpace=wrap;rounded=0;" parent="4YxnSJMb0JChCWjWq8wu-3" vertex="1">
          <mxGeometry width="60" height="30" as="geometry" />
        </mxCell>
        <mxCell id="eeJpTPLFoyLCRNKp8jV9-62" value="" style="endArrow=none;html=1;rounded=0;dashed=1;exitX=0.25;exitY=1;exitDx=0;exitDy=0;strokeWidth=2;" parent="4YxnSJMb0JChCWjWq8wu-3" source="eeJpTPLFoyLCRNKp8jV9-58" edge="1">
          <mxGeometry width="50" height="50" relative="1" as="geometry">
            <mxPoint x="400" y="90" as="sourcePoint" />
            <mxPoint x="50" y="30" as="targetPoint" />
          </mxGeometry>
        </mxCell>
        <mxCell id="4YxnSJMb0JChCWjWq8wu-12" value="" style="group" parent="1" vertex="1" connectable="0">
          <mxGeometry x="355" y="125" width="60" height="30" as="geometry" />
        </mxCell>
        <mxCell id="4YxnSJMb0JChCWjWq8wu-10" value="&lt;font style=&quot;font-size: 20px;&quot;&gt;User_Id&lt;/font&gt;" style="text;html=1;strokeColor=none;fillColor=none;align=center;verticalAlign=middle;whiteSpace=wrap;rounded=0;" parent="4YxnSJMb0JChCWjWq8wu-12" vertex="1">
          <mxGeometry width="60" height="30" as="geometry" />
        </mxCell>
        <mxCell id="4YxnSJMb0JChCWjWq8wu-11" value="" style="endArrow=none;html=1;rounded=0;dashed=1;exitX=0.25;exitY=1;exitDx=0;exitDy=0;strokeWidth=2;" parent="4YxnSJMb0JChCWjWq8wu-12" edge="1">
          <mxGeometry width="50" height="50" relative="1" as="geometry">
            <mxPoint x="2.5" y="30" as="sourcePoint" />
            <mxPoint x="57.5" y="30" as="targetPoint" />
          </mxGeometry>
        </mxCell>
        <mxCell id="4YxnSJMb0JChCWjWq8wu-14" value="" style="endArrow=classic;html=1;rounded=0;edgeStyle=orthogonalEdgeStyle;exitX=0;exitY=0.5;exitDx=0;exitDy=0;entryX=0;entryY=0.25;entryDx=0;entryDy=0;" parent="1" source="eeJpTPLFoyLCRNKp8jV9-3" target="eeJpTPLFoyLCRNKp8jV9-47" edge="1">
          <mxGeometry width="50" height="50" relative="1" as="geometry">
            <mxPoint x="610" y="472.5" as="sourcePoint" />
            <mxPoint x="90" y="490" as="targetPoint" />
            <Array as="points">
              <mxPoint x="90" y="135" />
              <mxPoint x="90" y="488" />
            </Array>
          </mxGeometry>
        </mxCell>
        <mxCell id="4YxnSJMb0JChCWjWq8wu-18" value="" style="endArrow=classic;html=1;rounded=0;edgeStyle=orthogonalEdgeStyle;exitX=0;exitY=0.75;exitDx=0;exitDy=0;entryX=0;entryY=0.25;entryDx=0;entryDy=0;" parent="1" edge="1">
          <mxGeometry width="50" height="50" relative="1" as="geometry">
            <mxPoint x="120" y="383" as="sourcePoint" />
            <mxPoint x="120" y="128" as="targetPoint" />
            <Array as="points">
              <mxPoint x="120" y="380" />
              <mxPoint x="100" y="380" />
              <mxPoint x="100" y="128" />
            </Array>
          </mxGeometry>
        </mxCell>
        <mxCell id="4YxnSJMb0JChCWjWq8wu-20" value="" style="endArrow=classic;html=1;rounded=0;edgeStyle=orthogonalEdgeStyle;exitX=0;exitY=0.75;exitDx=0;exitDy=0;" parent="1" edge="1">
          <mxGeometry width="50" height="50" relative="1" as="geometry">
            <mxPoint x="120" y="983.5" as="sourcePoint" />
            <mxPoint x="120" y="490" as="targetPoint" />
            <Array as="points">
              <mxPoint x="80" y="984" />
              <mxPoint x="80" y="490" />
            </Array>
          </mxGeometry>
        </mxCell>
        <mxCell id="4YxnSJMb0JChCWjWq8wu-21" value="" style="group" parent="1" vertex="1" connectable="0">
          <mxGeometry x="449.0000000000001" y="959" width="72.99999999999989" height="39.200000000000045" as="geometry" />
        </mxCell>
        <mxCell id="4YxnSJMb0JChCWjWq8wu-15" value="" style="group" parent="4YxnSJMb0JChCWjWq8wu-21" vertex="1" connectable="0">
          <mxGeometry x="12.999999999999886" y="5" width="60" height="30" as="geometry" />
        </mxCell>
        <mxCell id="4YxnSJMb0JChCWjWq8wu-16" value="&lt;font style=&quot;font-size: 20px;&quot;&gt;User_Id&lt;/font&gt;" style="text;html=1;strokeColor=none;fillColor=none;align=center;verticalAlign=middle;whiteSpace=wrap;rounded=0;" parent="4YxnSJMb0JChCWjWq8wu-15" vertex="1">
          <mxGeometry width="60" height="30" as="geometry" />
        </mxCell>
        <mxCell id="4YxnSJMb0JChCWjWq8wu-17" value="" style="endArrow=none;html=1;rounded=0;dashed=1;exitX=0.25;exitY=1;exitDx=0;exitDy=0;strokeWidth=2;" parent="4YxnSJMb0JChCWjWq8wu-15" edge="1">
          <mxGeometry width="50" height="50" relative="1" as="geometry">
            <mxPoint x="2.5" y="30" as="sourcePoint" />
            <mxPoint x="57.5" y="30" as="targetPoint" />
          </mxGeometry>
        </mxCell>
        <mxCell id="4YxnSJMb0JChCWjWq8wu-19" value="" style="endArrow=none;html=1;rounded=0;exitX=0.687;exitY=1.01;exitDx=0;exitDy=0;exitPerimeter=0;entryX=1.077;entryY=0.03;entryDx=0;entryDy=0;entryPerimeter=0;" parent="4YxnSJMb0JChCWjWq8wu-21" edge="1">
          <mxGeometry width="50" height="50" relative="1" as="geometry">
            <mxPoint x="0.05999999999994543" y="39.200000000000045" as="sourcePoint" />
            <mxPoint as="targetPoint" />
          </mxGeometry>
        </mxCell>
        <mxCell id="4YxnSJMb0JChCWjWq8wu-22" value="" style="group" parent="1" vertex="1" connectable="0">
          <mxGeometry x="500.0000000000001" y="1080.8" width="72.99999999999989" height="39.200000000000045" as="geometry" />
        </mxCell>
        <mxCell id="4YxnSJMb0JChCWjWq8wu-23" value="" style="group" parent="4YxnSJMb0JChCWjWq8wu-22" vertex="1" connectable="0">
          <mxGeometry x="12.999999999999886" y="5" width="60" height="30" as="geometry" />
        </mxCell>
        <mxCell id="4YxnSJMb0JChCWjWq8wu-24" value="&lt;font style=&quot;font-size: 20px;&quot;&gt;User_Id&lt;/font&gt;" style="text;html=1;strokeColor=none;fillColor=none;align=center;verticalAlign=middle;whiteSpace=wrap;rounded=0;" parent="4YxnSJMb0JChCWjWq8wu-23" vertex="1">
          <mxGeometry width="60" height="30" as="geometry" />
        </mxCell>
        <mxCell id="4YxnSJMb0JChCWjWq8wu-25" value="" style="endArrow=none;html=1;rounded=0;dashed=1;exitX=0.25;exitY=1;exitDx=0;exitDy=0;strokeWidth=2;" parent="4YxnSJMb0JChCWjWq8wu-23" edge="1">
          <mxGeometry width="50" height="50" relative="1" as="geometry">
            <mxPoint x="2.5" y="30" as="sourcePoint" />
            <mxPoint x="57.5" y="30" as="targetPoint" />
          </mxGeometry>
        </mxCell>
        <mxCell id="4YxnSJMb0JChCWjWq8wu-26" value="" style="endArrow=none;html=1;rounded=0;exitX=0.687;exitY=1.01;exitDx=0;exitDy=0;exitPerimeter=0;entryX=1.077;entryY=0.03;entryDx=0;entryDy=0;entryPerimeter=0;" parent="4YxnSJMb0JChCWjWq8wu-22" edge="1">
          <mxGeometry width="50" height="50" relative="1" as="geometry">
            <mxPoint x="0.05999999999994543" y="39.200000000000045" as="sourcePoint" />
            <mxPoint as="targetPoint" />
          </mxGeometry>
        </mxCell>
        <mxCell id="4YxnSJMb0JChCWjWq8wu-27" value="" style="endArrow=classic;html=1;rounded=0;edgeStyle=orthogonalEdgeStyle;exitX=0;exitY=0.75;exitDx=0;exitDy=0;" parent="1" edge="1">
          <mxGeometry width="50" height="50" relative="1" as="geometry">
            <mxPoint x="120" y="1093.5" as="sourcePoint" />
            <mxPoint x="120" y="500" as="targetPoint" />
            <Array as="points">
              <mxPoint x="70" y="1094" />
            </Array>
          </mxGeometry>
        </mxCell>
        <mxCell id="4YxnSJMb0JChCWjWq8wu-28" value="" style="group" parent="1" vertex="1" connectable="0">
          <mxGeometry x="453.5000000000001" y="1320.3999999999999" width="72.99999999999989" height="39.200000000000045" as="geometry" />
        </mxCell>
        <mxCell id="4YxnSJMb0JChCWjWq8wu-29" value="" style="group" parent="4YxnSJMb0JChCWjWq8wu-28" vertex="1" connectable="0">
          <mxGeometry x="12.999999999999886" y="5" width="60" height="30" as="geometry" />
        </mxCell>
        <mxCell id="4YxnSJMb0JChCWjWq8wu-30" value="&lt;font style=&quot;font-size: 20px;&quot;&gt;User_Id&lt;/font&gt;" style="text;html=1;strokeColor=none;fillColor=none;align=center;verticalAlign=middle;whiteSpace=wrap;rounded=0;" parent="4YxnSJMb0JChCWjWq8wu-29" vertex="1">
          <mxGeometry width="60" height="30" as="geometry" />
        </mxCell>
        <mxCell id="4YxnSJMb0JChCWjWq8wu-31" value="" style="endArrow=none;html=1;rounded=0;dashed=1;exitX=0.25;exitY=1;exitDx=0;exitDy=0;strokeWidth=2;" parent="4YxnSJMb0JChCWjWq8wu-29" edge="1">
          <mxGeometry width="50" height="50" relative="1" as="geometry">
            <mxPoint x="2.5" y="30" as="sourcePoint" />
            <mxPoint x="57.5" y="30" as="targetPoint" />
          </mxGeometry>
        </mxCell>
        <mxCell id="4YxnSJMb0JChCWjWq8wu-32" value="" style="endArrow=none;html=1;rounded=0;exitX=0.687;exitY=1.01;exitDx=0;exitDy=0;exitPerimeter=0;entryX=1.077;entryY=0.03;entryDx=0;entryDy=0;entryPerimeter=0;" parent="4YxnSJMb0JChCWjWq8wu-28" edge="1">
          <mxGeometry width="50" height="50" relative="1" as="geometry">
            <mxPoint x="0.05999999999994543" y="39.200000000000045" as="sourcePoint" />
            <mxPoint as="targetPoint" />
          </mxGeometry>
        </mxCell>
        <mxCell id="4YxnSJMb0JChCWjWq8wu-33" value="" style="endArrow=classic;html=1;rounded=0;edgeStyle=orthogonalEdgeStyle;exitX=0;exitY=0.5;exitDx=0;exitDy=0;" parent="1" source="eeJpTPLFoyLCRNKp8jV9-123" edge="1">
          <mxGeometry width="50" height="50" relative="1" as="geometry">
            <mxPoint x="60" y="1330" as="sourcePoint" />
            <mxPoint x="120" y="500" as="targetPoint" />
            <Array as="points">
              <mxPoint x="60" y="1335" />
              <mxPoint x="60" y="500" />
            </Array>
          </mxGeometry>
        </mxCell>
        <mxCell id="4YxnSJMb0JChCWjWq8wu-43" value="" style="endArrow=classic;html=1;rounded=0;edgeStyle=orthogonalEdgeStyle;entryX=0;entryY=1;entryDx=0;entryDy=0;" parent="1" target="eeJpTPLFoyLCRNKp8jV9-123" edge="1">
          <mxGeometry width="50" height="50" relative="1" as="geometry">
            <mxPoint x="120" y="1110" as="sourcePoint" />
            <mxPoint x="100" y="1350" as="targetPoint" />
            <Array as="points">
              <mxPoint x="50" y="1110" />
              <mxPoint x="50" y="1350" />
            </Array>
          </mxGeometry>
        </mxCell>
        <mxCell id="4YxnSJMb0JChCWjWq8wu-44" value="" style="group" parent="1" vertex="1" connectable="0">
          <mxGeometry x="552.0000000000001" y="959.8" width="72.99999999999989" height="39.200000000000045" as="geometry" />
        </mxCell>
        <mxCell id="4YxnSJMb0JChCWjWq8wu-45" value="" style="group" parent="4YxnSJMb0JChCWjWq8wu-44" vertex="1" connectable="0">
          <mxGeometry x="12.999999999999886" y="5" width="60" height="30" as="geometry" />
        </mxCell>
        <mxCell id="4YxnSJMb0JChCWjWq8wu-46" value="&lt;span style=&quot;font-size: 20px;&quot;&gt;Member_Id&lt;/span&gt;" style="text;html=1;strokeColor=none;fillColor=none;align=center;verticalAlign=middle;whiteSpace=wrap;rounded=0;" parent="4YxnSJMb0JChCWjWq8wu-45" vertex="1">
          <mxGeometry width="60" height="30" as="geometry" />
        </mxCell>
        <mxCell id="4YxnSJMb0JChCWjWq8wu-47" value="" style="endArrow=none;html=1;rounded=0;dashed=1;exitX=0.25;exitY=1;exitDx=0;exitDy=0;strokeWidth=2;" parent="4YxnSJMb0JChCWjWq8wu-45" edge="1">
          <mxGeometry width="50" height="50" relative="1" as="geometry">
            <mxPoint x="-15.5" y="30" as="sourcePoint" />
            <mxPoint x="72" y="30" as="targetPoint" />
          </mxGeometry>
        </mxCell>
        <mxCell id="4YxnSJMb0JChCWjWq8wu-48" value="" style="endArrow=none;html=1;rounded=0;entryX=1.077;entryY=0.03;entryDx=0;entryDy=0;entryPerimeter=0;" parent="4YxnSJMb0JChCWjWq8wu-44" edge="1">
          <mxGeometry width="50" height="50" relative="1" as="geometry">
            <mxPoint x="-17.000000000000114" y="39" as="sourcePoint" />
            <mxPoint x="-17" as="targetPoint" />
          </mxGeometry>
        </mxCell>
        <mxCell id="4YxnSJMb0JChCWjWq8wu-50" value="&lt;font color=&quot;#ff3333&quot; style=&quot;font-size: 20px;&quot;&gt;&lt;b&gt;Member_Programs&lt;/b&gt;&lt;/font&gt;" style="text;html=1;strokeColor=none;fillColor=none;align=center;verticalAlign=middle;whiteSpace=wrap;rounded=0;" parent="1" vertex="1">
          <mxGeometry x="92" y="1410" width="240" height="30" as="geometry" />
        </mxCell>
        <mxCell id="4YxnSJMb0JChCWjWq8wu-51" value="" style="rounded=0;whiteSpace=wrap;html=1;" parent="1" vertex="1">
          <mxGeometry x="120" y="1440" width="440" height="40" as="geometry" />
        </mxCell>
        <mxCell id="4YxnSJMb0JChCWjWq8wu-52" value="" style="group" parent="1" vertex="1" connectable="0">
          <mxGeometry x="120" y="1440" width="120" height="40" as="geometry" />
        </mxCell>
        <mxCell id="4YxnSJMb0JChCWjWq8wu-53" value="&lt;font style=&quot;font-size: 20px;&quot;&gt;Member_Id&lt;/font&gt;" style="text;html=1;strokeColor=none;fillColor=none;align=center;verticalAlign=middle;whiteSpace=wrap;rounded=0;" parent="4YxnSJMb0JChCWjWq8wu-52" vertex="1">
          <mxGeometry width="120" height="30" as="geometry" />
        </mxCell>
        <mxCell id="4YxnSJMb0JChCWjWq8wu-54" value="" style="endArrow=none;html=1;rounded=0;entryX=1;entryY=0;entryDx=0;entryDy=0;" parent="4YxnSJMb0JChCWjWq8wu-52" target="4YxnSJMb0JChCWjWq8wu-53" edge="1">
          <mxGeometry width="50" height="50" relative="1" as="geometry">
            <mxPoint x="120" y="40" as="sourcePoint" />
            <mxPoint x="900" y="160" as="targetPoint" />
          </mxGeometry>
        </mxCell>
        <mxCell id="4YxnSJMb0JChCWjWq8wu-55" value="" style="endArrow=none;html=1;rounded=0;exitX=0;exitY=1;exitDx=0;exitDy=0;entryX=0.75;entryY=1;entryDx=0;entryDy=0;strokeWidth=2;dashed=1;" parent="4YxnSJMb0JChCWjWq8wu-52" edge="1">
          <mxGeometry width="50" height="50" relative="1" as="geometry">
            <mxPoint x="15" y="30" as="sourcePoint" />
            <mxPoint x="105" y="30" as="targetPoint" />
          </mxGeometry>
        </mxCell>
        <mxCell id="4YxnSJMb0JChCWjWq8wu-65" value="" style="group" parent="1" vertex="1" connectable="0">
          <mxGeometry x="236" y="1440" width="120" height="30" as="geometry" />
        </mxCell>
        <mxCell id="4YxnSJMb0JChCWjWq8wu-60" value="&lt;font style=&quot;font-size: 20px;&quot;&gt;Program_id&lt;/font&gt;" style="text;html=1;strokeColor=none;fillColor=none;align=center;verticalAlign=middle;whiteSpace=wrap;rounded=0;" parent="4YxnSJMb0JChCWjWq8wu-65" vertex="1">
          <mxGeometry width="120" height="30" as="geometry" />
        </mxCell>
        <mxCell id="4YxnSJMb0JChCWjWq8wu-62" value="" style="endArrow=none;html=1;rounded=0;exitX=0;exitY=1;exitDx=0;exitDy=0;strokeWidth=2;dashed=1;" parent="4YxnSJMb0JChCWjWq8wu-65" edge="1">
          <mxGeometry width="50" height="50" relative="1" as="geometry">
            <mxPoint x="25" y="30" as="sourcePoint" />
            <mxPoint x="100" y="30" as="targetPoint" />
          </mxGeometry>
        </mxCell>
        <mxCell id="4YxnSJMb0JChCWjWq8wu-69" value="" style="endArrow=none;html=1;rounded=0;exitX=0.687;exitY=1.01;exitDx=0;exitDy=0;exitPerimeter=0;entryX=1.077;entryY=0.03;entryDx=0;entryDy=0;entryPerimeter=0;" parent="4YxnSJMb0JChCWjWq8wu-65" edge="1">
          <mxGeometry width="50" height="50" relative="1" as="geometry">
            <mxPoint x="119.06000000000006" y="39.200000000000045" as="sourcePoint" />
            <mxPoint x="119.00000000000011" as="targetPoint" />
          </mxGeometry>
        </mxCell>
        <mxCell id="4YxnSJMb0JChCWjWq8wu-66" value="" style="endArrow=none;html=1;rounded=0;entryX=0.967;entryY=0.75;entryDx=0;entryDy=0;entryPerimeter=0;strokeWidth=2;" parent="1" edge="1">
          <mxGeometry width="50" height="50" relative="1" as="geometry">
            <mxPoint x="144" y="1475" as="sourcePoint" />
            <mxPoint x="424.0999999999999" y="1475" as="targetPoint" />
          </mxGeometry>
        </mxCell>
        <mxCell id="4YxnSJMb0JChCWjWq8wu-67" value="" style="endArrow=classic;html=1;rounded=0;edgeStyle=orthogonalEdgeStyle;exitX=0;exitY=0.25;exitDx=0;exitDy=0;entryX=0;entryY=0.25;entryDx=0;entryDy=0;" parent="1" source="4YxnSJMb0JChCWjWq8wu-53" target="ryZRV2sun26D7R439m38-14" edge="1">
          <mxGeometry width="50" height="50" relative="1" as="geometry">
            <mxPoint x="100" y="1571" as="sourcePoint" />
            <mxPoint x="20" y="10" as="targetPoint" />
            <Array as="points">
              <mxPoint x="120" y="1460" />
              <mxPoint x="20" y="1460" />
              <mxPoint x="20" y="8" />
            </Array>
          </mxGeometry>
        </mxCell>
        <mxCell id="4YxnSJMb0JChCWjWq8wu-68" value="" style="endArrow=classic;html=1;rounded=0;edgeStyle=orthogonalEdgeStyle;entryX=0;entryY=0.25;entryDx=0;entryDy=0;" parent="1" edge="1">
          <mxGeometry width="50" height="50" relative="1" as="geometry">
            <mxPoint x="120" y="1470" as="sourcePoint" />
            <mxPoint x="126" y="1087.5" as="targetPoint" />
            <Array as="points">
              <mxPoint x="126" y="1470" />
              <mxPoint x="91" y="1470" />
              <mxPoint x="91" y="1088" />
            </Array>
          </mxGeometry>
        </mxCell>
        <mxCell id="4YxnSJMb0JChCWjWq8wu-70" value="&lt;font style=&quot;font-size: 20px;&quot;&gt;StartDate&lt;/font&gt;" style="text;html=1;align=center;verticalAlign=middle;resizable=0;points=[];autosize=1;strokeColor=none;fillColor=none;" parent="1" vertex="1">
          <mxGeometry x="355" y="1440" width="110" height="40" as="geometry" />
        </mxCell>
        <mxCell id="6rgENUelKzbd72hUYCIW-1" value="" style="endArrow=classic;html=1;rounded=0;edgeStyle=orthogonalEdgeStyle;exitX=0;exitY=0.5;exitDx=0;exitDy=0;entryX=0;entryY=0.5;entryDx=0;entryDy=0;" parent="1" edge="1">
          <mxGeometry width="50" height="50" relative="1" as="geometry">
            <mxPoint x="120" y="993" as="sourcePoint" />
            <mxPoint x="120" y="1114" as="targetPoint" />
            <Array as="points">
              <mxPoint x="105" y="993" />
              <mxPoint x="105" y="1114" />
            </Array>
          </mxGeometry>
        </mxCell>
        <mxCell id="sFtyCF45WDtHYq1KL3uJ-1" value="" style="endArrow=none;html=1;rounded=0;" parent="1" edge="1">
          <mxGeometry width="50" height="50" relative="1" as="geometry">
            <mxPoint x="435" y="161" as="sourcePoint" />
            <mxPoint x="435" y="121" as="targetPoint" />
          </mxGeometry>
        </mxCell>
        <mxCell id="sFtyCF45WDtHYq1KL3uJ-2" value="&lt;font style=&quot;font-size: 20px;&quot;&gt;IsDeleted&lt;/font&gt;" style="text;html=1;align=center;verticalAlign=middle;resizable=0;points=[];autosize=1;strokeColor=none;fillColor=none;" parent="1" vertex="1">
          <mxGeometry x="437" y="120" width="110" height="40" as="geometry" />
        </mxCell>
        <mxCell id="sFtyCF45WDtHYq1KL3uJ-3" value="" style="endArrow=none;html=1;rounded=0;" parent="1" edge="1">
          <mxGeometry width="50" height="50" relative="1" as="geometry">
            <mxPoint x="371" y="520" as="sourcePoint" />
            <mxPoint x="371" y="480" as="targetPoint" />
          </mxGeometry>
        </mxCell>
        <mxCell id="sFtyCF45WDtHYq1KL3uJ-4" value="&lt;font style=&quot;font-size: 20px;&quot;&gt;IsDeleted&lt;/font&gt;" style="text;html=1;align=center;verticalAlign=middle;resizable=0;points=[];autosize=1;strokeColor=none;fillColor=none;" parent="1" vertex="1">
          <mxGeometry x="372" y="480" width="110" height="40" as="geometry" />
        </mxCell>
        <mxCell id="sFtyCF45WDtHYq1KL3uJ-7" value="&lt;font style=&quot;font-size: 20px;&quot;&gt;IsDeleted&lt;/font&gt;" style="text;html=1;align=center;verticalAlign=middle;resizable=0;points=[];autosize=1;strokeColor=none;fillColor=none;" parent="1" vertex="1">
          <mxGeometry x="660" y="959.8" width="110" height="40" as="geometry" />
        </mxCell>
        <mxCell id="sFtyCF45WDtHYq1KL3uJ-8" value="" style="endArrow=none;html=1;rounded=0;" parent="1" edge="1">
          <mxGeometry width="50" height="50" relative="1" as="geometry">
            <mxPoint x="659" y="999.8" as="sourcePoint" />
            <mxPoint x="659" y="959.8" as="targetPoint" />
          </mxGeometry>
        </mxCell>
        <mxCell id="sFtyCF45WDtHYq1KL3uJ-11" value="&lt;font style=&quot;font-size: 20px;&quot;&gt;IsDeleted&lt;/font&gt;" style="text;html=1;align=center;verticalAlign=middle;resizable=0;points=[];autosize=1;strokeColor=none;fillColor=none;" parent="1" vertex="1">
          <mxGeometry x="552" y="1320.4" width="110" height="40" as="geometry" />
        </mxCell>
        <mxCell id="sFtyCF45WDtHYq1KL3uJ-12" value="" style="endArrow=none;html=1;rounded=0;" parent="1" edge="1">
          <mxGeometry width="50" height="50" relative="1" as="geometry">
            <mxPoint x="550" y="1360.4" as="sourcePoint" />
            <mxPoint x="550" y="1320.4" as="targetPoint" />
          </mxGeometry>
        </mxCell>
        <mxCell id="ryZRV2sun26D7R439m38-1" value="" style="rounded=0;whiteSpace=wrap;html=1;" parent="1" vertex="1">
          <mxGeometry x="125" width="465" height="40" as="geometry" />
        </mxCell>
        <mxCell id="ryZRV2sun26D7R439m38-2" value="&lt;font color=&quot;#ff3333&quot; style=&quot;font-size: 20px;&quot;&gt;&lt;b&gt;Programs&lt;/b&gt;&lt;/font&gt;" style="text;html=1;strokeColor=none;fillColor=none;align=center;verticalAlign=middle;whiteSpace=wrap;rounded=0;" parent="1" vertex="1">
          <mxGeometry x="125" y="-30" width="90" height="30" as="geometry" />
        </mxCell>
        <mxCell id="ryZRV2sun26D7R439m38-3" value="" style="group" parent="1" vertex="1" connectable="0">
          <mxGeometry x="185" width="80" height="40" as="geometry" />
        </mxCell>
        <mxCell id="ryZRV2sun26D7R439m38-4" value="&lt;font style=&quot;font-size: 20px;&quot;&gt;Name&lt;/font&gt;" style="text;html=1;align=center;verticalAlign=middle;resizable=0;points=[];autosize=1;strokeColor=none;fillColor=none;" parent="ryZRV2sun26D7R439m38-3" vertex="1">
          <mxGeometry width="80" height="40" as="geometry" />
        </mxCell>
        <mxCell id="ryZRV2sun26D7R439m38-5" value="" style="endArrow=none;html=1;rounded=0;entryX=1.005;entryY=-0.02;entryDx=0;entryDy=0;entryPerimeter=0;exitX=1.005;exitY=1.02;exitDx=0;exitDy=0;exitPerimeter=0;" parent="ryZRV2sun26D7R439m38-3" source="ryZRV2sun26D7R439m38-4" target="ryZRV2sun26D7R439m38-4" edge="1">
          <mxGeometry width="50" height="50" relative="1" as="geometry">
            <mxPoint x="340" y="210" as="sourcePoint" />
            <mxPoint x="390" y="160" as="targetPoint" />
          </mxGeometry>
        </mxCell>
        <mxCell id="ryZRV2sun26D7R439m38-6" value="" style="group" parent="1" vertex="1" connectable="0">
          <mxGeometry x="285" width="110" height="40" as="geometry" />
        </mxCell>
        <mxCell id="ryZRV2sun26D7R439m38-7" value="&lt;font style=&quot;font-size: 20px;&quot;&gt;Description&lt;/font&gt;" style="text;html=1;align=center;verticalAlign=middle;resizable=0;points=[];autosize=1;strokeColor=none;fillColor=none;" parent="ryZRV2sun26D7R439m38-6" vertex="1">
          <mxGeometry x="-21.999999999999996" width="120" height="40" as="geometry" />
        </mxCell>
        <mxCell id="ryZRV2sun26D7R439m38-13" value="" style="group" parent="1" vertex="1" connectable="0">
          <mxGeometry x="125" width="60" height="40" as="geometry" />
        </mxCell>
        <mxCell id="ryZRV2sun26D7R439m38-14" value="&lt;font style=&quot;font-size: 20px;&quot;&gt;Id&lt;/font&gt;" style="text;html=1;strokeColor=none;fillColor=none;align=center;verticalAlign=middle;whiteSpace=wrap;rounded=0;" parent="ryZRV2sun26D7R439m38-13" vertex="1">
          <mxGeometry width="60" height="30" as="geometry" />
        </mxCell>
        <mxCell id="ryZRV2sun26D7R439m38-15" value="" style="endArrow=none;html=1;rounded=0;entryX=1;entryY=0;entryDx=0;entryDy=0;" parent="ryZRV2sun26D7R439m38-13" target="ryZRV2sun26D7R439m38-14" edge="1">
          <mxGeometry width="50" height="50" relative="1" as="geometry">
            <mxPoint x="60" y="40" as="sourcePoint" />
            <mxPoint x="450" y="160" as="targetPoint" />
          </mxGeometry>
        </mxCell>
        <mxCell id="ryZRV2sun26D7R439m38-16" value="" style="endArrow=none;html=1;rounded=0;exitX=0.25;exitY=1;exitDx=0;exitDy=0;entryX=0.75;entryY=1;entryDx=0;entryDy=0;strokeWidth=2;" parent="ryZRV2sun26D7R439m38-13" source="ryZRV2sun26D7R439m38-14" target="ryZRV2sun26D7R439m38-14" edge="1">
          <mxGeometry width="50" height="50" relative="1" as="geometry">
            <mxPoint x="520" y="330" as="sourcePoint" />
            <mxPoint x="570" y="280" as="targetPoint" />
          </mxGeometry>
        </mxCell>
        <mxCell id="ryZRV2sun26D7R439m38-23" value="" style="endArrow=none;html=1;rounded=0;exitX=1.036;exitY=1;exitDx=0;exitDy=0;exitPerimeter=0;" parent="1" source="sFtyCF45WDtHYq1KL3uJ-2" edge="1">
          <mxGeometry width="50" height="50" relative="1" as="geometry">
            <mxPoint x="494" y="30" as="sourcePoint" />
            <mxPoint x="551" y="121" as="targetPoint" />
          </mxGeometry>
        </mxCell>
        <mxCell id="ryZRV2sun26D7R439m38-24" value="" style="group" parent="1" vertex="1" connectable="0">
          <mxGeometry x="560" y="125" width="120" height="30" as="geometry" />
        </mxCell>
        <mxCell id="ryZRV2sun26D7R439m38-25" value="&lt;font style=&quot;font-size: 20px;&quot;&gt;Program_Id&lt;/font&gt;" style="text;html=1;strokeColor=none;fillColor=none;align=center;verticalAlign=middle;whiteSpace=wrap;rounded=0;" parent="ryZRV2sun26D7R439m38-24" vertex="1">
          <mxGeometry x="-20" width="140" height="30" as="geometry" />
        </mxCell>
        <mxCell id="ryZRV2sun26D7R439m38-26" value="" style="endArrow=none;html=1;rounded=0;dashed=1;exitX=0.25;exitY=1;exitDx=0;exitDy=0;strokeWidth=2;entryX=0.943;entryY=0.987;entryDx=0;entryDy=0;entryPerimeter=0;" parent="ryZRV2sun26D7R439m38-24" target="ryZRV2sun26D7R439m38-25" edge="1">
          <mxGeometry width="50" height="50" relative="1" as="geometry">
            <mxPoint x="2.5" y="30" as="sourcePoint" />
            <mxPoint x="57.5" y="30" as="targetPoint" />
          </mxGeometry>
        </mxCell>
        <mxCell id="ryZRV2sun26D7R439m38-27" value="" style="endArrow=classic;html=1;rounded=0;edgeStyle=orthogonalEdgeStyle;entryX=0;entryY=0.75;entryDx=0;entryDy=0;exitX=0.766;exitY=-0.085;exitDx=0;exitDy=0;exitPerimeter=0;" parent="1" edge="1">
          <mxGeometry width="50" height="50" relative="1" as="geometry">
            <mxPoint x="602.5799999999999" y="119.59999999999991" as="sourcePoint" />
            <mxPoint x="125" y="25.5" as="targetPoint" />
            <Array as="points">
              <mxPoint x="603" y="73" />
              <mxPoint x="80" y="73" />
              <mxPoint x="80" y="26" />
            </Array>
          </mxGeometry>
        </mxCell>
        <mxCell id="Me79bqV77KKkvpcObcsN-1" value="" style="endArrow=none;html=1;rounded=0;" parent="1" edge="1">
          <mxGeometry width="50" height="50" relative="1" as="geometry">
            <mxPoint x="460" y="1480" as="sourcePoint" />
            <mxPoint x="460" y="1440" as="targetPoint" />
          </mxGeometry>
        </mxCell>
        <mxCell id="Me79bqV77KKkvpcObcsN-4" value="&lt;font style=&quot;font-size: 20px;&quot;&gt;EndDate&lt;/font&gt;" style="text;html=1;align=center;verticalAlign=middle;resizable=0;points=[];autosize=1;strokeColor=none;fillColor=none;" parent="1" vertex="1">
          <mxGeometry x="460" y="1440" width="100" height="40" as="geometry" />
        </mxCell>
        <mxCell id="4YxnSJMb0JChCWjWq8wu-34" value="" style="group" parent="1" vertex="1" connectable="0">
          <mxGeometry x="590.0000000000001" y="1080" width="109.99999999999989" height="39.200000000000045" as="geometry" />
        </mxCell>
        <mxCell id="4YxnSJMb0JChCWjWq8wu-38" value="" style="endArrow=none;html=1;rounded=0;exitX=0.687;exitY=1.01;exitDx=0;exitDy=0;exitPerimeter=0;entryX=1.077;entryY=0.03;entryDx=0;entryDy=0;entryPerimeter=0;" parent="4YxnSJMb0JChCWjWq8wu-34" edge="1">
          <mxGeometry width="50" height="50" relative="1" as="geometry">
            <mxPoint x="0.05999999999994543" y="39.200000000000045" as="sourcePoint" />
            <mxPoint as="targetPoint" />
          </mxGeometry>
        </mxCell>
        <mxCell id="4YxnSJMb0JChCWjWq8wu-35" value="" style="group" parent="4YxnSJMb0JChCWjWq8wu-34" vertex="1" connectable="0">
          <mxGeometry x="49.999999999999886" width="60" height="30" as="geometry" />
        </mxCell>
        <mxCell id="4YxnSJMb0JChCWjWq8wu-36" value="&lt;font style=&quot;font-size: 20px;&quot;&gt;Membership_Id&lt;/font&gt;" style="text;html=1;strokeColor=none;fillColor=none;align=center;verticalAlign=middle;whiteSpace=wrap;rounded=0;" parent="4YxnSJMb0JChCWjWq8wu-35" vertex="1">
          <mxGeometry width="60" height="30" as="geometry" />
        </mxCell>
        <mxCell id="4YxnSJMb0JChCWjWq8wu-37" value="" style="endArrow=none;html=1;rounded=0;dashed=1;strokeWidth=2;" parent="4YxnSJMb0JChCWjWq8wu-35" edge="1">
          <mxGeometry width="50" height="50" relative="1" as="geometry">
            <mxPoint x="-37" y="30.200000000000045" as="sourcePoint" />
            <mxPoint x="100" y="30.200000000000045" as="targetPoint" />
          </mxGeometry>
        </mxCell>
        <mxCell id="vsYfrwRCowsSytlvWY1H-1" value="" style="group" parent="1" vertex="1" connectable="0">
          <mxGeometry x="750" y="1079.2" width="110" height="40.799999999999955" as="geometry" />
        </mxCell>
        <mxCell id="sFtyCF45WDtHYq1KL3uJ-9" value="&lt;font style=&quot;font-size: 20px;&quot;&gt;IsDeleted&lt;/font&gt;" style="text;html=1;align=center;verticalAlign=middle;resizable=0;points=[];autosize=1;strokeColor=none;fillColor=none;" parent="vsYfrwRCowsSytlvWY1H-1" vertex="1">
          <mxGeometry width="110" height="40" as="geometry" />
        </mxCell>
        <mxCell id="sFtyCF45WDtHYq1KL3uJ-10" value="" style="endArrow=none;html=1;rounded=0;" parent="vsYfrwRCowsSytlvWY1H-1" edge="1">
          <mxGeometry width="50" height="50" relative="1" as="geometry">
            <mxPoint y="40.799999999999955" as="sourcePoint" />
            <mxPoint y="0.7999999999999545" as="targetPoint" />
          </mxGeometry>
        </mxCell>
        <mxCell id="Lbm8n1m9wxQ44kpvdOK1-1" value="" style="endArrow=none;html=1;rounded=0;exitX=0.687;exitY=1.01;exitDx=0;exitDy=0;exitPerimeter=0;entryX=1.077;entryY=0.03;entryDx=0;entryDy=0;entryPerimeter=0;" parent="1" edge="1">
          <mxGeometry width="50" height="50" relative="1" as="geometry">
            <mxPoint x="401.56000000000006" y="39.200000000000045" as="sourcePoint" />
            <mxPoint x="401.5000000000001" as="targetPoint" />
          </mxGeometry>
        </mxCell>
        <mxCell id="Lbm8n1m9wxQ44kpvdOK1-2" value="" style="group" parent="1" vertex="1" connectable="0">
          <mxGeometry x="401" width="110" height="40" as="geometry" />
        </mxCell>
        <mxCell id="Lbm8n1m9wxQ44kpvdOK1-3" value="&lt;font style=&quot;font-size: 20px;&quot;&gt;Salary&lt;/font&gt;" style="text;html=1;align=center;verticalAlign=middle;resizable=0;points=[];autosize=1;strokeColor=none;fillColor=none;" parent="Lbm8n1m9wxQ44kpvdOK1-2" vertex="1">
          <mxGeometry x="-1.9999999999999964" width="80" height="40" as="geometry" />
        </mxCell>
        <mxCell id="tdI0jZu9HYsphho5VReR-1" value="" style="endArrow=none;html=1;rounded=0;exitX=0.687;exitY=1.01;exitDx=0;exitDy=0;exitPerimeter=0;entryX=1.077;entryY=0.03;entryDx=0;entryDy=0;entryPerimeter=0;" parent="Lbm8n1m9wxQ44kpvdOK1-2" edge="1">
          <mxGeometry width="50" height="50" relative="1" as="geometry">
            <mxPoint x="81.06000000000006" y="39.200000000000045" as="sourcePoint" />
            <mxPoint x="81.00000000000011" as="targetPoint" />
          </mxGeometry>
        </mxCell>
        <mxCell id="tdI0jZu9HYsphho5VReR-2" value="" style="group" parent="1" vertex="1" connectable="0">
          <mxGeometry x="497" width="110" height="40" as="geometry" />
        </mxCell>
        <mxCell id="tdI0jZu9HYsphho5VReR-3" value="&lt;font style=&quot;font-size: 20px;&quot;&gt;IsDeleted&lt;/font&gt;" style="text;html=1;align=center;verticalAlign=middle;resizable=0;points=[];autosize=1;strokeColor=none;fillColor=none;" parent="tdI0jZu9HYsphho5VReR-2" vertex="1">
          <mxGeometry x="-16.999999999999996" width="110" height="40" as="geometry" />
        </mxCell>
        <mxCell id="pK4fQpCwo396SRozIbXu-1" value="" style="endArrow=none;html=1;rounded=0;" edge="1" parent="1">
          <mxGeometry width="50" height="50" relative="1" as="geometry">
            <mxPoint x="670" y="1360.4" as="sourcePoint" />
            <mxPoint x="670" y="1320.4" as="targetPoint" />
          </mxGeometry>
        </mxCell>
        <mxCell id="pK4fQpCwo396SRozIbXu-3" value="" style="group" vertex="1" connectable="0" parent="1">
          <mxGeometry x="700" y="1325.3999999999999" width="60" height="30" as="geometry" />
        </mxCell>
        <mxCell id="pK4fQpCwo396SRozIbXu-4" value="&lt;font style=&quot;font-size: 20px;&quot;&gt;UserDeleted&lt;/font&gt;" style="text;html=1;strokeColor=none;fillColor=none;align=center;verticalAlign=middle;whiteSpace=wrap;rounded=0;" vertex="1" parent="pK4fQpCwo396SRozIbXu-3">
          <mxGeometry width="60" height="30" as="geometry" />
        </mxCell>
        <mxCell id="pK4fQpCwo396SRozIbXu-5" value="" style="endArrow=none;html=1;rounded=0;dashed=1;strokeWidth=2;" edge="1" parent="pK4fQpCwo396SRozIbXu-3">
          <mxGeometry width="50" height="50" relative="1" as="geometry">
            <mxPoint x="-20" y="30.000000000000227" as="sourcePoint" />
            <mxPoint x="79.5" y="30" as="targetPoint" />
          </mxGeometry>
        </mxCell>
        <mxCell id="pK4fQpCwo396SRozIbXu-7" value="" style="endArrow=classic;html=1;rounded=0;edgeStyle=orthogonalEdgeStyle;exitX=0;exitY=0.5;exitDx=0;exitDy=0;" edge="1" parent="1">
          <mxGeometry width="50" height="50" relative="1" as="geometry">
            <mxPoint x="120" y="1345" as="sourcePoint" />
            <mxPoint x="120" y="510" as="targetPoint" />
            <Array as="points">
              <mxPoint x="60" y="1345" />
              <mxPoint x="60" y="510" />
            </Array>
          </mxGeometry>
        </mxCell>
      </root>
    </mxGraphModel>
  </diagram>
</mxfile>
